<svg width="41" height="24" viewBox="0 0 41 24" fill="none" xmlns="http://www.w3.org/2000/svg">
<path d="M12.5 9.48571V4.51429C12.5 4.23025 12.7303 4 13.0143 4H17.9857C18.2697 4 18.5 4.23025 18.5 4.51429V9.48571C18.5 9.76975 18.2697 10 17.9857 10H13.0143C12.7303 10 12.5 9.76975 12.5 9.48571Z" stroke="#EF233C" stroke-width="1.5"/>
<path d="M22.5 9.48571V4.51429C22.5 4.23025 22.7302 4 23.0143 4H27.9857C28.2698 4 28.5 4.23025 28.5 4.51429V9.48571C28.5 9.76975 28.2698 10 27.9857 10H23.0143C22.7302 10 22.5 9.76975 22.5 9.48571Z" stroke="#EF233C" stroke-width="1.5"/>
<path d="M12.5 19.4857V14.5143C12.5 14.2302 12.7303 14 13.0143 14H17.9857C18.2697 14 18.5 14.2302 18.5 14.5143V19.4857C18.5 19.7698 18.2697 20 17.9857 20H13.0143C12.7303 20 12.5 19.7698 12.5 19.4857Z" stroke="#EF233C" stroke-width="1.5"/>
<path d="M22.5 19.4857V14.5143C22.5 14.2302 22.7302 14 23.0143 14H27.9857C28.2698 14 28.5 14.2302 28.5 14.5143V19.4857C28.5 19.7698 28.2698 20 27.9857 20H23.0143C22.7302 20 22.5 19.7698 22.5 19.4857Z" stroke="#EF233C" stroke-width="1.5"/>
</svg>
